<?xml version="1.0" encoding="iso-8859-1"?>

<!DOCTYPE svg PUBLIC "-//W3C//DTD SVG 1.1//EN" "http://www.w3.org/Graphics/SVG/1.1/DTD/svg11.dtd">
<!-- Uploaded to: SVG Repo, www.svgrepo.com, Generator: SVG Repo Mixer Tools -->
<svg version="1.1" id="_x35_" xmlns="http://www.w3.org/2000/svg" xmlns:xlink="http://www.w3.org/1999/xlink" 
	 viewBox="0 0 512 512"  xml:space="preserve">
<g>
	<path style="fill:#5D2D2D;" d="M159.714,495.239c0,9.257,11.514,16.761,25.718,16.761c14.203,0,25.718-7.504,25.718-16.761v-50.713
		c0-9.257-11.514-16.761-25.718-16.761c-14.204,0-25.718,7.504-25.718,16.761V495.239z"/>
	<path style="fill:#6E3333;" d="M142.839,448.109c0,9.257,19.069,16.761,42.593,16.761c23.523,0,42.593-7.504,42.593-16.761v-50.713
		c0-9.257-19.069-16.761-42.593-16.761c-23.523,0-42.593,7.504-42.593,16.761V448.109z"/>
	<path style="opacity:0.1;fill:#040000;" d="M142.839,424.194c0,9.257,19.069,16.761,42.593,16.761
		c23.523,0,42.593-7.504,42.593-16.761v-50.713c0-9.257-19.069-16.761-42.593-16.761c-23.523,0-42.593,7.504-42.593,16.761V424.194z
		"/>
	<path style="fill:#E34E4C;" d="M370.864,172.743v238.222c0,9.254-7.572,16.825-16.826,16.825H16.826
		C7.572,427.79,0,420.219,0,410.965V172.743C0,77.748,77.748,0,172.743,0h25.378c29.935,0,58.118,7.712,82.796,21.243
		c28.884,15.914,52.79,39.891,68.704,68.774C363.152,114.624,370.864,142.877,370.864,172.743z"/>
	<path style="fill:#5B2D2D;" d="M316.856,262.264H54.008c-21.261,0-38.657-17.395-38.657-38.657v-4.972
		c0-15.946,13.047-28.993,28.992-28.993H326.52c15.946,0,28.992,13.047,28.992,28.993v4.972
		C355.513,244.869,338.117,262.264,316.856,262.264z"/>
	<path style="fill:#B82B2A;" d="M351.938,226.844H18.926c-4.623,0-8.406-3.783-8.406-8.406v-3.707
		c0-23.118,18.915-42.032,42.032-42.032h265.76c23.118,0,42.032,18.914,42.032,42.032v3.707
		C360.344,223.061,356.561,226.844,351.938,226.844z"/>
	<g>
		<path style="fill:#E7E5D7;" d="M132.852,113.082c-0.841-1.822-1.963-3.435-3.505-4.837c-1.472-1.402-3.365-2.524-5.469-3.295
			c-2.243-0.771-4.767-1.192-7.501-1.192H95.696v48.584h10.446v-18.298h10.235c2.734,0,5.258-0.351,7.501-1.192
			c2.103-0.771,3.996-1.893,5.469-3.225c1.542-1.472,2.664-3.015,3.505-4.908c0.841-1.823,1.192-3.786,1.192-5.749
			C134.044,116.868,133.693,114.905,132.852,113.082z M121.564,123.738c-1.332,1.192-3.295,1.823-5.679,1.823h-9.744V112.17h9.744
			c2.384,0,4.347,0.701,5.679,1.893c1.332,1.192,2.104,2.875,2.104,4.908C123.668,120.934,122.896,122.547,121.564,123.738z"/>
		<path style="fill:#E7E5D7;" d="M181.155,121.775c-0.07-1.823-0.28-3.576-0.701-5.118c-0.28-1.612-0.841-3.015-1.542-4.417
			c-0.701-1.262-1.823-2.524-3.155-3.786c-1.823-1.612-3.786-2.874-6.099-3.786c-2.384-0.841-5.048-1.262-8.133-1.262
			s-5.818,0.421-8.132,1.262c-2.384,0.911-4.346,2.173-6.24,3.786c-1.262,1.262-2.383,2.524-3.085,3.786
			c-0.701,1.402-1.262,2.804-1.542,4.417c-0.421,1.542-0.561,3.295-0.631,5.118c-0.07,1.893-0.14,3.996-0.14,6.239
			c0,2.384,0.07,4.487,0.14,6.31c0.07,1.893,0.211,3.576,0.631,5.188c0.28,1.542,0.841,3.014,1.542,4.276
			c0.701,1.402,1.823,2.594,3.085,3.926c1.893,1.543,3.856,2.804,6.24,3.716c2.314,0.911,5.048,1.332,8.132,1.332
			s5.749-0.421,8.133-1.332c2.313-0.911,4.276-2.173,6.099-3.716c1.332-1.332,2.454-2.524,3.155-3.926
			c0.701-1.262,1.262-2.734,1.542-4.276c0.421-1.612,0.631-3.295,0.701-5.188c0.07-1.823,0.14-3.926,0.14-6.31
			C181.295,125.771,181.225,123.668,181.155,121.775z M170.639,133.834c-0.07,1.542-0.21,2.734-0.421,3.716
			c-0.21,1.051-0.49,1.822-0.771,2.383c-0.351,0.631-0.701,1.262-1.192,1.753c-0.841,0.771-1.753,1.332-2.875,1.823
			c-1.121,0.491-2.383,0.771-3.856,0.771c-1.472,0-2.734-0.28-3.926-0.771c-1.051-0.491-2.033-1.052-2.874-1.823
			c-0.491-0.491-0.911-1.121-1.192-1.753c-0.351-0.561-0.561-1.332-0.771-2.383c-0.21-0.982-0.35-2.173-0.421-3.716
			c-0.07-1.472-0.07-3.435-0.07-5.819c0-2.243,0-4.206,0.07-5.679c0.07-1.542,0.21-2.804,0.421-3.856
			c0.211-0.982,0.421-1.753,0.771-2.383c0.28-0.631,0.701-1.192,1.192-1.683c0.841-0.771,1.823-1.402,2.874-1.822
			c1.192-0.561,2.454-0.771,3.926-0.771c1.472,0,2.734,0.211,3.856,0.771c1.122,0.421,2.033,1.051,2.875,1.822
			c0.491,0.491,0.841,1.052,1.192,1.683c0.281,0.631,0.561,1.402,0.771,2.383c0.211,1.052,0.351,2.314,0.421,3.856
			c0.14,1.472,0.14,3.435,0.14,5.679C170.779,130.398,170.779,132.361,170.639,133.834z"/>
		<path style="fill:#E7E5D7;" d="M227.706,132.151c-0.631-1.753-1.682-3.155-3.155-4.347c-1.122-1.052-2.524-1.893-4.066-2.454
			c-1.682-0.631-3.646-1.051-6.099-1.402l-6.38-0.841c-1.122-0.14-2.173-0.351-2.944-0.701c-0.701-0.28-1.402-0.771-1.893-1.192
			c-0.631-0.491-0.982-0.982-1.262-1.612c-0.21-0.561-0.28-1.262-0.28-1.823c0-1.682,0.631-3.155,1.963-4.347
			c1.332-1.262,3.435-1.823,6.24-1.823c1.682,0,3.576,0.21,5.468,0.561c2.033,0.421,3.856,1.332,5.468,2.804l6.59-5.959
			c-2.314-2.033-4.767-3.505-7.572-4.347c-2.734-0.841-5.959-1.262-9.675-1.262c-2.874,0-5.538,0.351-7.852,1.052
			c-2.243,0.701-4.206,1.753-5.889,3.014c-1.543,1.262-2.734,2.875-3.646,4.627c-0.841,1.822-1.262,3.856-1.262,5.959
			c0,4.206,1.262,7.431,3.856,9.604c1.122,1.052,2.594,1.893,4.207,2.524c1.682,0.701,3.786,1.122,6.099,1.542l6.38,0.841
			c1.402,0.21,2.384,0.421,3.015,0.631c0.631,0.211,1.332,0.561,1.823,0.982c1.122,1.052,1.612,2.384,1.612,4.066
			c0,1.893-0.771,3.435-2.313,4.487c-1.683,1.051-4.066,1.542-7.221,1.542c-2.383,0-4.697-0.28-6.94-0.841
			c-2.243-0.631-4.137-1.682-5.889-3.225l-6.73,6.1c2.594,2.454,5.538,4.066,8.693,5.048c3.155,0.911,6.8,1.402,10.796,1.402
			c2.804,0,5.468-0.35,7.922-0.982c2.454-0.631,4.487-1.612,6.31-2.874c1.682-1.192,3.155-2.804,4.136-4.627
			c0.982-1.753,1.543-3.926,1.543-6.24C228.758,135.867,228.337,133.904,227.706,132.151z"/>
		<path style="fill:#E7E5D7;" d="M236.82,103.758v8.412h13.952v40.171h10.446V112.17h13.951v-8.412H236.82z"/>
	</g>
	<g>
		<rect x="162.524" y="35.196" style="fill:#E7E5D7;" width="45.815" height="13.155"/>
		<rect x="178.854" y="56.063" style="fill:#E7E5D7;" width="13.155" height="38.248"/>
		<rect x="154.132" y="53.568" style="fill:#E7E5D7;" width="62.599" height="13.155"/>
	</g>
	<g style="opacity:0.18;">
		<rect x="46.467" y="287.351" style="fill:#F0F0F0;" width="277.93" height="108.043"/>
		<path style="fill:#2E0303;" d="M35.053,275.94v130.889H335.81V275.94H35.053z M312.956,383.974H57.908v-85.179h255.048V383.974z"
			/>
	</g>
	<rect x="69.978" y="314.438" style="fill:#6C3F3F;" width="17.428" height="55.898"/>
</g>
</svg>